<?xml version="1.0" standalone="no"?>
<!DOCTYPE svg PUBLIC "-//W3C//DTD SVG 20010904//EN"
 "http://www.w3.org/TR/2001/REC-SVG-20010904/DTD/svg10.dtd">
<svg version="1.0" xmlns="http://www.w3.org/2000/svg"
 width="222.000000pt" height="227.000000pt" viewBox="0 0 222.000000 227.000000"
 preserveAspectRatio="xMidYMid meet">
<metadata>
Created by potrace 1.16, written by Peter Selinger 2001-2019
</metadata>
<g transform="translate(0.000000,227.000000) scale(0.100000,-0.100000)"
fill="#000000" stroke="none">
<path d="M540 1954 c-60 -19 -132 -73 -175 -132 -66 -90 -125 -289 -125 -423
0 -46 -2 -50 -34 -63 -45 -19 -101 -76 -130 -134 -48 -95 -60 -157 -61 -307 0
-134 1 -142 28 -198 16 -32 38 -63 48 -70 16 -10 19 -24 19 -96 0 -104 23
-159 81 -198 47 -31 125 -41 169 -23 60 25 110 106 110 180 l0 25 644 0 644 0
4 -53 c14 -167 238 -222 323 -79 22 38 25 56 25 132 0 86 1 88 34 126 47 51
66 121 66 239 0 169 -49 299 -155 410 l-62 65 -7 80 c-20 249 -115 434 -261
505 l-50 25 -545 2 c-452 2 -553 -1 -590 -13z m1092 -127 c122 -60 194 -191
214 -389 l7 -68 -737 0 -736 0 0 34 c0 63 29 189 58 251 49 104 117 166 212
192 33 9 158 12 485 10 l440 -2 57 -28z m-1282 -666 c103 -54 107 -206 8 -257
-42 -22 -115 -20 -147 4 -97 72 -92 197 9 250 54 27 84 28 130 3z m1656 -6
c89 -58 84 -204 -8 -251 -126 -65 -260 62 -199 190 38 78 137 107 207 61z
m-446 -163 c98 -49 106 -186 15 -242 -32 -20 -45 -21 -444 -18 l-410 3 -30 29
c-56 54 -64 134 -19 191 41 53 52 54 468 55 347 0 388 -2 420 -18z"/>
</g>
</svg>
